<?xml version="1.0" encoding="utf-8"?>
<!-- Generator: Adobe Illustrator 25.3.0, SVG Export Plug-In . SVG Version: 6.00 Build 0)  -->
<svg version="1.1" id="레이어_1" xmlns="http://www.w3.org/2000/svg" xmlns:xlink="http://www.w3.org/1999/xlink" x="0px"
	 y="0px" viewBox="0 0 40 28.13" style="enable-background:new 0 0 40 28.13;" xml:space="preserve">
<style type="text/css">
	.st0{fill:#000503;}
</style>
<g>
	<path class="st0" d="M23.54,1.04c4.18-0.02,7.54,2.38,8.86,6.07c0.69,1.93,1.39,3.86,2.06,5.8c0.18,0.51,0.45,0.89,0.9,1.19
		c1.14,0.78,2.25,1.62,3.38,2.41c0.88,0.62,0.87,1.66,1.23,2.52c0.12,0.29-0.27,0.3-0.46,0.36c-2.28,0.84-4.57,1.66-6.86,2.5
		c-4.93,1.79-9.85,3.57-14.78,5.38c-0.39,0.14-0.59,0.08-0.67-0.32c0-0.02-0.01-0.04-0.02-0.06c-0.68-1.16-0.65-2.34-0.2-3.59
		c0.31-0.86,0.47-1.77,0.73-2.65c0.17-0.58,0.12-1.1-0.09-1.68c-0.82-2.17-1.69-4.33-2.34-6.56c-1.39-4.75,1.41-9.7,6.12-11.04
		C22.22,1.15,23.06,1.02,23.54,1.04z"/>
	<path class="st0" d="M18.1,0.55c-1.64,1.12-2.98,2.41-3.89,4.11c-1.53,2.88-1.76,5.87-0.76,8.96c0.52,1.59,1.05,3.19,1.71,4.72
		c0.48,1.12,0.51,2.18,0.14,3.29c-0.37,1.1-0.04,1.1-1.3,0.64c-4.47-1.62-8.94-3.25-13.42-4.85c-0.6-0.21-0.67-0.42-0.5-1.03
		c0.31-1.11,0.94-1.86,1.89-2.46c1-0.64,2.17-1.21,2.81-2.13c0.77-1.13,1.06-2.58,1.56-3.9c0.63-1.65,1.11-3.35,2.25-4.77
		C10.92,0.24,14.99-0.72,18.1,0.55z"/>
	<path class="st0" d="M9.93,26.14c-2.18-0.01-4.04-1.92-3.97-4.05c0.01-0.38,0.1-0.47,0.46-0.34c2.15,0.8,4.31,1.6,6.47,2.37
		c0.37,0.13,0.34,0.27,0.15,0.52C12.41,25.48,11.04,26.14,9.93,26.14z"/>
	<path class="st0" d="M29.75,28.13c-0.79-0.03-1.75-0.38-2.52-1.19c-0.26-0.28-0.36-0.47,0.13-0.64c2.08-0.73,4.15-1.49,6.22-2.24
		c0.42-0.15,0.54-0.07,0.49,0.4C33.88,26.56,32.16,28.15,29.75,28.13z"/>
</g>
</svg>
