<?xml version="1.0" encoding="utf-8"?>
<!-- Generator: Adobe Illustrator 25.3.0, SVG Export Plug-In . SVG Version: 6.00 Build 0)  -->
<svg version="1.1" id="레이어_1" xmlns="http://www.w3.org/2000/svg" xmlns:xlink="http://www.w3.org/1999/xlink" x="0px"
	 y="0px" viewBox="0 0 965.6 181.8" style="enable-background:new 0 0 965.6 181.8;" xml:space="preserve">
<style type="text/css">
	.st0{fill:#000503;}
	.st1{fill:#FF3822;}
</style>
<g>
	<path class="st0" d="M0,13.5h51.2c33.9,0,58.4,11,58.4,40.9c0,15.7-8.8,30.7-23.6,35.7v1.1c18.9,4,32.6,16.8,32.6,39.3
		c0,32.8-26.7,48.5-63.3,48.5H0V13.5z M48.3,82.6c25.1,0,35.7-9.4,35.7-24.9c0-17.3-11.7-23.8-35-23.8H26v48.7H48.3z M52.3,158.5
		c25.8,0,40.6-9.2,40.6-29.4c0-18.6-14.4-26.9-40.6-26.9H26v56.3L52.3,158.5L52.3,158.5z"/>
	<path class="st0" d="M133.1,117.2c0-41.1,27.6-64.9,58.1-64.9c30.5,0,58.1,23.8,58.1,64.9s-27.6,64.6-58.1,64.6
		C160.7,181.8,133.1,158.3,133.1,117.2z M222.9,117.2c0-26-12.1-43.6-31.6-43.6c-19.3,0-31.4,17.5-31.4,43.6
		c0,26.3,12.1,43.5,31.4,43.5C210.8,160.7,222.9,143.4,222.9,117.2z"/>
	<path class="st0" d="M265.3,117.2c0-41.1,27.6-64.9,58.1-64.9c30.5,0,58.1,23.8,58.1,64.9s-27.6,64.6-58.1,64.6
		C292.9,181.8,265.3,158.3,265.3,117.2z M355.1,117.2c0-26-12.1-43.6-31.6-43.6c-19.3,0-31.4,17.5-31.4,43.6
		c0,26.3,12.1,43.5,31.4,43.5C343,160.7,355.1,143.4,355.1,117.2z"/>
	<path class="st0" d="M406.2,0h25.4v115.2h0.9l47.8-59.7h28.7l-41.8,50.3l46.5,73.2h-28.1L452.3,123l-20.7,23.8v32.1h-25.4V0z"/>
	<path class="st1" d="M531.9,13.5H586c34.1,0,59.7,12.3,59.7,48c0,25.6-13.7,40.8-34.5,47.4l40.4,70h-29.4l-37.5-66.7H558v66.7h-26
		L531.9,13.5L531.9,13.5z M582.9,91.4c24,0,37-9.9,37-29.8s-13-26.9-37-26.9H558v56.8H582.9z"/>
	<path class="st0" d="M671.3,150V0h25.8v151.3c0,7,2.9,9.4,6.1,9.4c1.1,0,2,0,4.3-0.4l3.4,19.5c-3.2,1.1-7.4,2-13.9,2
		C678.2,181.8,671.3,169.9,671.3,150z"/>
	<path class="st0" d="M729.4,16.8c0-9.2,6.5-15.3,15.9-15.3s16.2,6.1,16.2,15.3c0,9.4-6.7,15.5-16.2,15.5
		C735.9,32.3,729.4,26.3,729.4,16.8z M732.6,55.5h25.8v123.5h-25.8V55.5z"/>
	<path class="st0" d="M791.4,55.5h21.1l2,17.3h0.7c10.6-11.2,22.9-20.4,38.2-20.4c18.4,0,28.7,8.5,34.1,22.7
		c12.1-13,24.7-22.7,40.2-22.7c25.8,0,37.9,17.5,37.9,48.9v77.7h-25.8v-74.5c0-21.3-6.7-29.9-20.7-29.9c-8.5,0-17.5,5.6-27.8,16.8
		v87.6h-25.8v-74.5c0-21.3-6.5-29.9-20.7-29.9c-8.3,0-17.5,5.6-27.6,16.8v87.6h-25.8L791.4,55.5L791.4,55.5z"/>
</g>
</svg>
