<?xml version="1.0" encoding="utf-8"?>
<!-- Generator: Adobe Illustrator 25.3.0, SVG Export Plug-In . SVG Version: 6.00 Build 0)  -->
<svg version="1.1" id="레이어_1" xmlns="http://www.w3.org/2000/svg" xmlns:xlink="http://www.w3.org/1999/xlink" x="0px"
	 y="0px" viewBox="0 0 18.7 24.92" style="enable-background:new 0 0 18.7 24.92;" xml:space="preserve">
<style type="text/css">
	.st0{fill:#000503;}
</style>
<path class="st0" d="M0,9.24c0.2-4.41,2.91-7.87,6.93-8.92c5.08-1.33,10.27,1.59,11.54,6.85c0.51,2.11,0.12,4.09-0.73,6.02
	c-1.15,2.58-2.68,4.93-4.29,7.23c-0.91,1.29-1.83,2.57-2.83,3.8c-0.75,0.92-1.76,0.93-2.49,0c-2.42-3.09-4.71-6.27-6.53-9.76
	C0.71,12.78,0.04,11.01,0,9.24z M9.38,12.49c1.71-0.01,3.15-1.45,3.14-3.15c-0.01-1.7-1.46-3.13-3.17-3.13
	c-1.71,0-3.15,1.45-3.14,3.15C6.23,11.07,7.67,12.49,9.38,12.49z"/>
</svg>
