<?xml version="1.0" encoding="utf-8"?>
<!-- Generator: Adobe Illustrator 25.3.0, SVG Export Plug-In . SVG Version: 6.00 Build 0)  -->
<svg version="1.1" id="레이어_1" xmlns="http://www.w3.org/2000/svg" xmlns:xlink="http://www.w3.org/1999/xlink" x="0px"
	 y="0px" viewBox="0 0 62.41 49.9" style="enable-background:new 0 0 62.41 49.9;" xml:space="preserve">
<style type="text/css">
	.st0{fill:#030303;}
	.st1{fill:#FFFFFF;}
</style>
<g>
	<g>
		<path class="st0" d="M39.08,21.24c0-0.58,0-1,0-1.41c0-4.55,0-9.11,0-13.66c0-1.4-0.19-1.6-1.53-1.6c-9.63,0-19.26-0.01-28.88,0
			C6.22,4.58,4.5,6.33,4.5,8.8c-0.01,8.31,0,16.61,0,24.92c0,0.4,0.07,0.8,0.12,1.28c2.91-0.81,5.76-0.41,8.59-0.44
			c5.53-0.06,11.05-0.02,16.58-0.02c0.41,0,0.81,0,1.24,0c0.09,1.49,0.17,2.86,0.26,4.42c-0.44,0-0.87,0-1.31,0
			c-7.3,0-14.6-0.01-21.9,0c-2.75,0.01-4.34,2.25-3.25,4.61c0.6,1.31,1.69,1.83,3.11,1.83c8.1-0.02,16.2,0.01,24.3-0.03
			c1.17-0.01,1.96,0.24,2.68,1.26c0.82,1.16,1.95,2.11,3.05,3.26c-0.6,0-1.11,0-1.61,0c-9.38,0-18.77-0.01-28.15,0.01
			c-2.82,0-5.18-0.9-6.83-3.27c-0.92-1.32-1.35-2.82-1.35-4.42C0,30.99-0.02,19.76,0.02,8.53c0.02-4.75,3.81-8.49,8.62-8.51
			c9.77-0.04,19.53-0.02,29.3,0c3.43,0.01,5.68,2.27,5.7,5.7c0.02,4.21-0.01,8.41,0.02,12.62c0.01,0.76-0.25,1.07-0.97,1.32
			C41.52,20.05,40.42,20.64,39.08,21.24z"/>
		<path class="st0" d="M48.32,21.95c-7.7,0-13.86,6.2-13.86,13.94c0,7.9,6.1,14.01,13.99,14c7.72,0,13.96-6.2,13.96-13.87
			C62.41,28.14,56.21,21.95,48.32,21.95z"/>
	</g>
	<path class="st1" d="M43.33,34.16c0.11-2.49,1.64-4.44,3.91-5.03c2.87-0.75,5.79,0.9,6.51,3.86c0.29,1.19,0.07,2.31-0.41,3.4
		c-0.65,1.45-1.51,2.78-2.42,4.08c-0.51,0.73-1.03,1.45-1.59,2.14c-0.42,0.52-0.99,0.53-1.41,0c-1.37-1.74-2.65-3.54-3.68-5.5
		C43.73,36.15,43.36,35.15,43.33,34.16z M48.62,35.99c0.96,0,1.78-0.82,1.77-1.78c0-0.96-0.82-1.76-1.79-1.76
		c-0.96,0-1.77,0.82-1.77,1.78C46.84,35.19,47.66,35.99,48.62,35.99z"/>
</g>
</svg>
