<?xml version="1.0" encoding="utf-8"?>
<!-- Generator: Adobe Illustrator 25.3.0, SVG Export Plug-In . SVG Version: 6.00 Build 0)  -->
<svg version="1.1" id="레이어_1" xmlns="http://www.w3.org/2000/svg" xmlns:xlink="http://www.w3.org/1999/xlink" x="0px"
	 y="0px" viewBox="0 0 62.41 49.9" style="enable-background:new 0 0 62.41 49.9;" xml:space="preserve">
<style type="text/css">
	.st0{fill:#030303;}
	.st1{fill:#FFFFFF;}
	.st2{fill:#FFDA00;}
</style>
<g>
	<g>
		<g>
			<path class="st0" d="M39.08,21.24c0-0.58,0-1,0-1.41c0-4.55,0-9.11,0-13.66c0-1.4-0.19-1.6-1.53-1.6c-9.63,0-19.26-0.01-28.88,0
				C6.22,4.58,4.5,6.33,4.5,8.8c-0.01,8.31,0,16.61,0,24.92c0,0.4,0.07,0.8,0.12,1.28c2.91-0.81,5.76-0.41,8.59-0.44
				c5.53-0.06,11.05-0.02,16.58-0.02c0.41,0,0.81,0,1.24,0c0.09,1.49,0.17,2.86,0.26,4.42c-0.44,0-0.87,0-1.31,0
				c-7.3,0-14.6-0.01-21.9,0c-2.75,0.01-4.34,2.25-3.25,4.61c0.6,1.31,1.69,1.83,3.11,1.83c8.1-0.02,16.2,0.01,24.3-0.03
				c1.17-0.01,1.96,0.24,2.68,1.26c0.82,1.16,1.95,2.11,3.05,3.26c-0.6,0-1.11,0-1.61,0c-9.38,0-18.77-0.01-28.15,0.01
				c-2.82,0-5.18-0.9-6.83-3.27c-0.92-1.32-1.35-2.82-1.35-4.42C0,30.99-0.02,19.76,0.02,8.53c0.02-4.75,3.81-8.49,8.62-8.51
				c9.77-0.04,19.53-0.02,29.3,0c3.43,0.01,5.68,2.27,5.7,5.7c0.02,4.21-0.01,8.41,0.02,12.62c0.01,0.76-0.25,1.07-0.97,1.32
				C41.52,20.05,40.42,20.64,39.08,21.24z"/>
			<path class="st0" d="M48.32,21.95c-7.7,0-13.86,6.2-13.86,13.94c0,7.9,6.1,14.01,13.99,14c7.72,0,13.96-6.2,13.96-13.87
				C62.41,28.14,56.21,21.95,48.32,21.95z"/>
		</g>
	</g>
	<g>
		<g>
			<path class="st1" d="M41.25,30.08c0.77,0,1.51,0,2.28,0c0-0.34,0-0.66,0-0.97c0-0.33,0.23-0.57,0.53-0.57
				c0.3,0,0.52,0.24,0.52,0.58c0,0.15,0,0.31,0,0.46c0,0.15,0,0.31,0,0.49c1.9,0,3.8,0,5.74,0c0-0.31,0-0.62,0-0.93
				c0-0.35,0.21-0.58,0.51-0.59c0.28-0.01,0.54,0.23,0.56,0.56c0.02,0.33,0,0.65,0,1c0.77,0,1.51,0,2.27,0c0,3.72,0,7.41,0,11.13
				c-4.12,0-8.25,0-12.41,0C41.25,37.54,41.25,33.84,41.25,30.08z M41.86,40.6c3.75,0,7.46,0,11.18,0c0-2.31,0-4.6,0-6.88
				c-3.74,0-7.45,0-11.18,0C41.86,36.02,41.86,38.3,41.86,40.6z"/>
		</g>
		<path class="st2" d="M53.34,36.61l-3.11,5.39c-0.15,0.26,0.04,0.57,0.33,0.57h6.22c0.29,0,0.48-0.32,0.33-0.57L54,36.61
			C53.86,36.35,53.49,36.35,53.34,36.61z"/>
		<g>
			<path class="st0" d="M56.36,41.31l-2.14-3.71c-0.24-0.42-0.85-0.42-1.09,0l-2.14,3.71c-0.24,0.42,0.06,0.95,0.55,0.95h4.29
				C56.3,42.26,56.61,41.73,56.36,41.31z M55.79,42.03h-4.24c-0.33,0-0.53-0.35-0.37-0.63l2.12-3.67c0.16-0.28,0.57-0.28,0.73,0
				l2.12,3.67C56.32,41.68,56.12,42.03,55.79,42.03z"/>
		</g>
		<g>
			<path d="M53.74,40.84h-0.02c-0.12,0-0.22-0.1-0.22-0.22l-0.03-2.14c0-0.12,0.1-0.22,0.22-0.22h0.09c0.12,0,0.22,0.1,0.22,0.23
				l-0.04,2.14C53.95,40.74,53.86,40.84,53.74,40.84z M53.74,41.64h-0.03c-0.12,0-0.22-0.1-0.22-0.22l0,0c0-0.12,0.1-0.22,0.22-0.22
				h0.03c0.12,0,0.22,0.1,0.22,0.22l0,0C53.96,41.54,53.86,41.64,53.74,41.64z"/>
		</g>
	</g>
</g>
</svg>
