<?xml version="1.0" encoding="utf-8"?>
<!-- Generator: Adobe Illustrator 25.3.0, SVG Export Plug-In . SVG Version: 6.00 Build 0)  -->
<svg version="1.1" id="레이어_1" xmlns="http://www.w3.org/2000/svg" xmlns:xlink="http://www.w3.org/1999/xlink" x="0px"
	 y="0px" viewBox="0 0 62.41 49.9" style="enable-background:new 0 0 62.41 49.9;" xml:space="preserve">
<style type="text/css">
	.st0{fill:#030303;}
	.st1{fill:#FFFFFF;}
</style>
<g>
	<g>
		<path class="st0" d="M39.08,21.24c0-0.58,0-1,0-1.41c0-4.55,0-9.11,0-13.66c0-1.4-0.19-1.6-1.53-1.6c-9.63,0-19.26-0.01-28.88,0
			C6.22,4.58,4.5,6.33,4.5,8.8c-0.01,8.31,0,16.61,0,24.92c0,0.4,0.07,0.8,0.12,1.28c2.91-0.81,5.76-0.41,8.59-0.44
			c5.53-0.06,11.05-0.02,16.58-0.02c0.41,0,0.81,0,1.24,0c0.09,1.49,0.17,2.86,0.26,4.42c-0.44,0-0.87,0-1.31,0
			c-7.3,0-14.6-0.01-21.9,0c-2.75,0.01-4.34,2.25-3.25,4.61c0.6,1.31,1.69,1.83,3.11,1.83c8.1-0.02,16.2,0.01,24.3-0.03
			c1.17-0.01,1.96,0.24,2.68,1.26c0.82,1.16,1.95,2.11,3.05,3.26c-0.6,0-1.11,0-1.61,0c-9.38,0-18.77-0.01-28.15,0.01
			c-2.82,0-5.18-0.9-6.83-3.27c-0.92-1.32-1.35-2.82-1.35-4.42C0,30.99-0.02,19.76,0.02,8.53c0.02-4.75,3.81-8.49,8.62-8.51
			c9.77-0.04,19.53-0.02,29.3,0c3.43,0.01,5.68,2.27,5.7,5.7c0.02,4.21-0.01,8.41,0.02,12.62c0.01,0.76-0.25,1.07-0.97,1.32
			C41.52,20.05,40.42,20.64,39.08,21.24z"/>
		<path class="st0" d="M48.32,21.95c-7.7,0-13.86,6.2-13.86,13.94c0,7.9,6.1,14.01,13.99,14c7.72,0,13.96-6.2,13.96-13.87
			C62.41,28.14,56.21,21.95,48.32,21.95z"/>
	</g>
	<g>
		<path class="st1" d="M54.21,39.01c0,0.31,0,0.56,0,0.85c-0.11,0.01-0.22,0.02-0.33,0.02c-3.15,0-6.3,0-9.44,0.01
			c-0.25,0-0.37-0.06-0.42-0.32c-0.45-2.06-0.92-4.11-1.38-6.16c-0.23-1.03-0.47-2.06-0.7-3.09c-0.04-0.17-0.12-0.23-0.29-0.22
			c-0.47,0.01-0.93,0-1.4,0.01c-0.18,0-0.24-0.06-0.24-0.24c0.01-0.78-0.08-0.62,0.59-0.63c0.56-0.01,1.13,0.01,1.69-0.01
			c0.2,0,0.28,0.07,0.32,0.26c0.4,1.8,0.81,3.6,1.22,5.41c0.09,0.41,0.2,0.83,0.28,1.24c0.03,0.17,0.11,0.23,0.28,0.23
			c0.28-0.01,0.55,0,0.83,0c2.53,0,5.07-0.01,7.6,0.01c0.34,0,0.48-0.09,0.57-0.42c0.52-1.82,1.07-3.64,1.59-5.46
			c0.08-0.29,0.21-0.42,0.51-0.38c0.13,0.02,0.27,0,0.46,0c-0.12,0.44-0.23,0.83-0.34,1.21c-0.55,1.87-1.1,3.73-1.64,5.6
			c-0.07,0.23-0.17,0.31-0.41,0.31c-2.94-0.01-5.88-0.01-8.82-0.01c-0.11,0-0.23,0-0.38,0c0.14,0.59,0.25,1.13,0.4,1.66
			c0.02,0.07,0.18,0.13,0.28,0.13c0.71,0.01,1.43,0.01,2.14,0.01c2.22,0,4.43,0,6.65,0C53.95,39.01,54.07,39.01,54.21,39.01z"/>
		<path class="st1" d="M49.4,33.43c0.21-0.2,0.42-0.4,0.63-0.61c0.21-0.21,0.41-0.43,0.62-0.65c0.21,0.22,0.38,0.42,0.56,0.6
			c-0.75,0.75-1.54,1.52-2.32,2.3c-0.75-0.76-1.52-1.55-2.3-2.34c0.15-0.16,0.33-0.34,0.58-0.59c0.4,0.43,0.81,0.86,1.21,1.29
			c0.03-0.01,0.05-0.02,0.08-0.03c0.01-0.1,0.02-0.2,0.02-0.3c0-1.18,0.01-2.36-0.01-3.53c0-0.29,0.09-0.39,0.37-0.36
			c0.13,0.02,0.27,0,0.46,0c0,0.73,0,1.42,0,2.12c0,0.69,0,1.37,0,2.06C49.34,33.41,49.37,33.42,49.4,33.43z"/>
		<path class="st1" d="M52.7,40.37c0.83,0,1.53,0.71,1.52,1.54c-0.01,0.82-0.7,1.51-1.52,1.51c-0.85,0-1.54-0.67-1.54-1.51
			C51.16,41.05,51.84,40.37,52.7,40.37z M52.66,42.58c0.4,0.01,0.71-0.28,0.72-0.66c0.01-0.37-0.32-0.7-0.69-0.71
			c-0.37-0.01-0.67,0.29-0.68,0.67C52.01,42.28,52.27,42.57,52.66,42.58z"/>
		<path class="st1" d="M43.59,41.91c-0.01-0.82,0.68-1.53,1.49-1.54c0.86-0.01,1.59,0.7,1.58,1.55c-0.01,0.81-0.72,1.5-1.54,1.5
			C44.28,43.43,43.59,42.75,43.59,41.91z M45.11,42.58c0.39,0,0.7-0.31,0.69-0.69c-0.01-0.36-0.32-0.67-0.69-0.68
			c-0.38,0-0.68,0.31-0.68,0.7C44.44,42.3,44.72,42.58,45.11,42.58z"/>
	</g>
</g>
</svg>
