<?xml version="1.0" encoding="utf-8"?>
<!-- Generator: Adobe Illustrator 25.3.0, SVG Export Plug-In . SVG Version: 6.00 Build 0)  -->
<svg version="1.1" id="레이어_1" xmlns="http://www.w3.org/2000/svg" xmlns:xlink="http://www.w3.org/1999/xlink" x="0px"
	 y="0px" viewBox="0 0 62.41 49.9" style="enable-background:new 0 0 62.41 49.9;" xml:space="preserve">
<style type="text/css">
	.st0{fill:#030303;}
	.st1{fill:#FFFFFF;}
</style>
<g>
	<g>
		<path class="st0" d="M39.08,21.24c0-0.58,0-1,0-1.41c0-4.55,0-9.11,0-13.66c0-1.4-0.19-1.6-1.53-1.6c-9.63,0-19.26-0.01-28.88,0
			C6.22,4.58,4.5,6.33,4.5,8.8c-0.01,8.31,0,16.61,0,24.92c0,0.4,0.07,0.8,0.12,1.28c2.91-0.81,5.76-0.41,8.59-0.44
			c5.53-0.06,11.05-0.02,16.58-0.02c0.41,0,0.81,0,1.24,0c0.09,1.49,0.17,2.86,0.26,4.42c-0.44,0-0.87,0-1.31,0
			c-7.3,0-14.6-0.01-21.9,0c-2.75,0.01-4.34,2.25-3.25,4.61c0.6,1.31,1.69,1.83,3.11,1.83c8.1-0.02,16.2,0.01,24.3-0.03
			c1.17-0.01,1.96,0.24,2.68,1.26c0.82,1.16,1.95,2.11,3.05,3.26c-0.6,0-1.11,0-1.61,0c-9.38,0-18.77-0.01-28.15,0.01
			c-2.82,0-5.18-0.9-6.83-3.27c-0.92-1.32-1.35-2.82-1.35-4.42C0,30.99-0.02,19.76,0.02,8.53c0.02-4.75,3.81-8.49,8.62-8.51
			c9.77-0.04,19.53-0.02,29.3,0c3.43,0.01,5.68,2.27,5.7,5.7c0.02,4.21-0.01,8.41,0.02,12.62c0.01,0.76-0.25,1.07-0.97,1.32
			C41.52,20.05,40.42,20.64,39.08,21.24z"/>
		<path class="st0" d="M48.32,21.95c-7.7,0-13.86,6.2-13.86,13.94c0,7.9,6.1,14.01,13.99,14c7.72,0,13.96-6.2,13.96-13.87
			C62.41,28.14,56.21,21.95,48.32,21.95z"/>
	</g>
	<g>
		<path class="st1" d="M50.18,29.21c2.03-0.01,3.66,1.16,4.3,2.95c0.34,0.94,0.67,1.88,1,2.82c0.09,0.25,0.22,0.43,0.44,0.58
			c0.56,0.38,1.09,0.79,1.64,1.17c0.43,0.3,0.42,0.8,0.6,1.22c0.06,0.14-0.13,0.14-0.22,0.18c-1.11,0.41-2.22,0.81-3.33,1.21
			c-2.39,0.87-4.79,1.74-7.18,2.61c-0.19,0.07-0.29,0.04-0.33-0.16c0-0.01-0.01-0.02-0.01-0.03c-0.33-0.56-0.32-1.14-0.1-1.74
			c0.15-0.42,0.23-0.86,0.35-1.29c0.08-0.28,0.06-0.54-0.05-0.81c-0.4-1.06-0.82-2.1-1.14-3.19c-0.67-2.31,0.68-4.71,2.97-5.36
			C49.54,29.26,49.94,29.2,50.18,29.21z"/>
		<path class="st1" d="M47.54,28.98c-0.79,0.54-1.45,1.17-1.89,1.99c-0.75,1.4-0.86,2.85-0.37,4.35c0.25,0.77,0.51,1.55,0.83,2.29
			c0.23,0.54,0.25,1.06,0.07,1.6c-0.18,0.53-0.02,0.53-0.63,0.31c-2.17-0.79-4.34-1.58-6.52-2.35c-0.29-0.1-0.32-0.2-0.24-0.5
			c0.15-0.54,0.46-0.9,0.92-1.2c0.48-0.31,1.06-0.59,1.36-1.04c0.38-0.55,0.52-1.25,0.76-1.89c0.3-0.8,0.54-1.63,1.09-2.31
			C44.05,28.82,46.03,28.36,47.54,28.98z"/>
		<path class="st1" d="M43.57,41.4c-1.06,0-1.96-0.93-1.93-1.97c0.01-0.19,0.05-0.23,0.23-0.16c1.05,0.39,2.09,0.78,3.14,1.15
			c0.18,0.06,0.16,0.13,0.07,0.25C44.77,41.08,44.11,41.4,43.57,41.4z"/>
		<path class="st1" d="M53.2,42.37c-0.39-0.02-0.85-0.19-1.22-0.58c-0.13-0.13-0.17-0.23,0.06-0.31c1.01-0.35,2.02-0.72,3.02-1.09
			c0.21-0.08,0.26-0.04,0.24,0.2C55.2,41.61,54.37,42.38,53.2,42.37z"/>
	</g>
</g>
</svg>
