<?xml version="1.0" encoding="utf-8"?>
<!-- Generator: Adobe Illustrator 25.3.0, SVG Export Plug-In . SVG Version: 6.00 Build 0)  -->
<svg version="1.1" id="레이어_1" xmlns="http://www.w3.org/2000/svg" xmlns:xlink="http://www.w3.org/1999/xlink" x="0px"
	 y="0px" viewBox="0 0 62.41 49.9" style="enable-background:new 0 0 62.41 49.9;" xml:space="preserve">
<style type="text/css">
	.st0{fill:#030303;}
	.st1{fill:#FFFFFF;}
</style>
<g>
	<g>
		<path class="st0" d="M39.08,21.24c0-0.58,0-1,0-1.41c0-4.55,0-9.11,0-13.66c0-1.4-0.19-1.6-1.53-1.6c-9.63,0-19.26-0.01-28.88,0
			C6.22,4.58,4.5,6.33,4.5,8.8c-0.01,8.31,0,16.61,0,24.92c0,0.4,0.07,0.8,0.12,1.28c2.91-0.81,5.76-0.41,8.59-0.44
			c5.53-0.06,11.05-0.02,16.58-0.02c0.41,0,0.81,0,1.24,0c0.09,1.49,0.17,2.86,0.26,4.42c-0.44,0-0.87,0-1.31,0
			c-7.3,0-14.6-0.01-21.9,0c-2.75,0.01-4.34,2.25-3.25,4.61c0.6,1.31,1.69,1.83,3.11,1.83c8.1-0.02,16.2,0.01,24.3-0.03
			c1.17-0.01,1.96,0.24,2.68,1.26c0.82,1.16,1.95,2.11,3.05,3.26c-0.6,0-1.11,0-1.61,0c-9.38,0-18.77-0.01-28.15,0.01
			c-2.82,0-5.18-0.9-6.83-3.27c-0.92-1.32-1.35-2.82-1.35-4.42C0,30.99-0.02,19.76,0.02,8.53c0.02-4.75,3.81-8.49,8.62-8.51
			c9.77-0.04,19.53-0.02,29.3,0c3.43,0.01,5.68,2.27,5.7,5.7c0.02,4.21-0.01,8.41,0.02,12.62c0.01,0.76-0.25,1.07-0.97,1.32
			C41.52,20.05,40.42,20.64,39.08,21.24z"/>
		<path class="st0" d="M48.32,21.95c-7.7,0-13.86,6.2-13.86,13.94c0,7.9,6.1,14.01,13.99,14c7.72,0,13.96-6.2,13.96-13.87
			C62.41,28.14,56.21,21.95,48.32,21.95z"/>
	</g>
	<g>
		<path class="st1" d="M44.14,33.87c0.19,0.01,0.3,0.03,0.4,0.03c0.79,0,1.58,0,2.38,0c0.5,0,0.8,0.26,0.82,0.69
			c0.02,0.44-0.3,0.75-0.8,0.75c-1.45,0.01-2.9,0.01-4.35,0c-0.51,0-0.81-0.3-0.81-0.82c-0.01-1.44-0.01-2.88,0-4.32
			c0-0.51,0.29-0.82,0.74-0.81c0.45,0.01,0.71,0.3,0.71,0.83c0,0.65,0,1.29,0,1.94c0,0.12,0.01,0.24,0.02,0.35
			c0.03,0.02,0.06,0.03,0.08,0.05c0.19-0.22,0.4-0.43,0.58-0.65c0.97-1.18,2.19-1.96,3.66-2.32c3.73-0.92,7.66,1.28,8.54,5.27
			c0.54,2.46-0.1,4.65-1.85,6.43c-1.62,1.66-3.66,2.32-5.98,2c-1.06-0.14-2.02-0.51-2.9-1.12c-0.11-0.08-0.22-0.15-0.32-0.25
			c-0.28-0.27-0.32-0.69-0.1-0.97c0.25-0.31,0.63-0.38,0.98-0.14c0.63,0.44,1.3,0.77,2.05,0.95c3.06,0.74,6.23-1.32,6.77-4.41
			c0.56-3.22-1.7-6.06-4.62-6.47c-2.08-0.3-3.82,0.37-5.17,2.01C44.71,33.21,44.45,33.5,44.14,33.87z"/>
	</g>
</g>
</svg>
