<?xml version="1.0" encoding="utf-8"?>
<!-- Generator: Adobe Illustrator 25.3.0, SVG Export Plug-In . SVG Version: 6.00 Build 0)  -->
<svg version="1.1" id="레이어_1" xmlns="http://www.w3.org/2000/svg" xmlns:xlink="http://www.w3.org/1999/xlink" x="0px"
	 y="0px" viewBox="0 0 62.41 49.9" style="enable-background:new 0 0 62.41 49.9;" xml:space="preserve">
<style type="text/css">
	.st0{fill:#030303;}
	.st1{fill:#FFFFFF;}
</style>
<g>
	<g>
		<path class="st0" d="M1840.7,2414.17c0-2.8,0-4.77,0-6.74c0-21.83,0.01-43.66-0.01-65.49c0-6.71-0.9-7.68-7.33-7.68
			c-46.16-0.02-92.33-0.04-138.49,0.01c-11.72,0.01-20,8.43-20.01,20.26c-0.04,39.83-0.02,79.66,0.01,119.49
			c0,1.91,0.35,3.83,0.57,6.12c13.94-3.86,27.62-1.96,41.18-2.11c26.49-0.29,52.99-0.08,79.49-0.08c1.95,0,3.91,0,5.93,0
			c0.42,7.13,0.81,13.71,1.26,21.21c-2.12,0-4.19,0-6.26,0c-35,0-69.99-0.04-104.99,0.02c-13.2,0.02-20.79,10.78-15.59,22.09
			c2.88,6.27,8.08,8.79,14.93,8.77c38.83-0.08,77.66,0.06,116.49-0.15c5.59-0.03,9.41,1.13,12.87,6.03
			c3.93,5.58,9.34,10.12,14.61,15.64c-2.9,0-5.31,0-7.73,0c-45,0-89.99-0.04-134.99,0.02c-13.5,0.02-24.82-4.29-32.75-15.68
			c-4.41-6.33-6.47-13.53-6.49-21.17c-0.08-53.83-0.17-107.66,0.02-161.49c0.08-22.78,18.29-40.71,41.33-40.8
			c46.83-0.19,93.66-0.12,140.49-0.02c16.44,0.03,27.23,10.9,27.31,27.32c0.1,20.16-0.05,40.33,0.1,60.49
			c0.03,3.62-1.2,5.14-4.67,6.33C1852.38,2408.47,1847.09,2411.29,1840.7,2414.17z"/>
		<path class="st0" d="M1885,2417.56c-36.9,0-66.44,29.72-66.45,66.86c-0.01,37.87,29.25,67.17,67.06,67.15
			c37-0.02,66.92-29.75,66.94-66.49C1952.56,2447.26,1922.83,2417.56,1885,2417.56z"/>
	</g>
	<path class="st1" d="M1861.07,2476.1c0.53-11.93,7.86-21.27,18.74-24.12c13.74-3.59,27.77,4.3,31.2,18.51
		c1.37,5.7,0.34,11.07-1.98,16.29c-3.1,6.97-7.23,13.33-11.61,19.55c-2.46,3.49-4.96,6.95-7.65,10.27c-2.02,2.5-4.75,2.52-6.74-0.01
		c-6.55-8.34-12.72-16.95-17.65-26.38C1863,2485.65,1861.19,2480.88,1861.07,2476.1z M1886.43,2484.88c4.61-0.02,8.51-3.93,8.5-8.52
		c-0.02-4.58-3.94-8.46-8.56-8.45c-4.61,0.01-8.51,3.92-8.48,8.52C1877.9,2481.04,1881.8,2484.89,1886.43,2484.88z"/>
</g>
<g>
	<g>
		<path class="st0" d="M1840.7,2414.17c0-2.8,0-4.77,0-6.74c0-21.83,0.01-43.66-0.01-65.49c0-6.71-0.9-7.68-7.33-7.68
			c-46.16-0.02-92.33-0.04-138.49,0.01c-11.72,0.01-20,8.43-20.01,20.26c-0.04,39.83-0.02,79.66,0.01,119.49
			c0,1.91,0.35,3.83,0.57,6.12c13.94-3.86,27.62-1.96,41.18-2.11c26.49-0.29,52.99-0.08,79.49-0.08c1.95,0,3.91,0,5.93,0
			c0.42,7.13,0.81,13.71,1.26,21.21c-2.12,0-4.19,0-6.26,0c-35,0-69.99-0.04-104.99,0.02c-13.2,0.02-20.79,10.78-15.59,22.09
			c2.88,6.27,8.08,8.79,14.93,8.77c38.83-0.08,77.66,0.06,116.49-0.15c5.59-0.03,9.41,1.13,12.87,6.03
			c3.93,5.58,9.34,10.12,14.61,15.64c-2.9,0-5.31,0-7.73,0c-45,0-89.99-0.04-134.99,0.02c-13.5,0.02-24.82-4.29-32.75-15.68
			c-4.41-6.33-6.47-13.53-6.49-21.17c-0.08-53.83-0.17-107.66,0.02-161.49c0.08-22.78,18.29-40.71,41.33-40.8
			c46.83-0.19,93.66-0.12,140.49-0.02c16.44,0.03,27.23,10.9,27.31,27.32c0.1,20.16-0.05,40.33,0.1,60.49
			c0.03,3.62-1.2,5.14-4.67,6.33C1852.38,2408.47,1847.09,2411.29,1840.7,2414.17z"/>
		<path class="st0" d="M1885,2417.56c-36.9,0-66.44,29.72-66.45,66.86c-0.01,37.87,29.25,67.17,67.06,67.15
			c37-0.02,66.92-29.75,66.94-66.49C1952.56,2447.26,1922.83,2417.56,1885,2417.56z"/>
	</g>
	<path class="st1" d="M1861.07,2476.1c0.53-11.93,7.86-21.27,18.74-24.12c13.74-3.59,27.77,4.3,31.2,18.51
		c1.37,5.7,0.34,11.07-1.98,16.29c-3.1,6.97-7.23,13.33-11.61,19.55c-2.46,3.49-4.96,6.95-7.65,10.27c-2.02,2.5-4.75,2.52-6.74-0.01
		c-6.55-8.34-12.72-16.95-17.65-26.38C1863,2485.65,1861.19,2480.88,1861.07,2476.1z M1886.43,2484.88c4.61-0.02,8.51-3.93,8.5-8.52
		c-0.02-4.58-3.94-8.46-8.56-8.45c-4.61,0.01-8.51,3.92-8.48,8.52C1877.9,2481.04,1881.8,2484.89,1886.43,2484.88z"/>
</g>
<g>
	<g>
		<path class="st1" d="M39.08,21.24c0-0.58,0-1,0-1.41c0-4.55,0-9.11,0-13.66c0-1.4-0.19-1.6-1.53-1.6c-9.63,0-19.26-0.01-28.88,0
			C6.22,4.58,4.5,6.33,4.5,8.8c-0.01,8.31,0,16.61,0,24.92c0,0.4,0.07,0.8,0.12,1.28c2.91-0.81,5.76-0.41,8.59-0.44
			c5.53-0.06,11.05-0.02,16.58-0.02c0.41,0,0.81,0,1.24,0c0.09,1.49,0.17,2.86,0.26,4.42c-0.44,0-0.87,0-1.31,0
			c-7.3,0-14.6-0.01-21.9,0c-2.75,0.01-4.34,2.25-3.25,4.61c0.6,1.31,1.69,1.83,3.11,1.83c8.1-0.02,16.2,0.01,24.3-0.03
			c1.17-0.01,1.96,0.24,2.68,1.26c0.82,1.16,1.95,2.11,3.05,3.26c-0.6,0-1.11,0-1.61,0c-9.38,0-18.77-0.01-28.15,0.01
			c-2.82,0-5.18-0.9-6.83-3.27c-0.92-1.32-1.35-2.82-1.35-4.42C0,30.99-0.02,19.76,0.02,8.53c0.02-4.75,3.81-8.49,8.62-8.51
			c9.77-0.04,19.53-0.02,29.3,0c3.43,0.01,5.68,2.27,5.7,5.7c0.02,4.21-0.01,8.41,0.02,12.62c0.01,0.76-0.25,1.07-0.97,1.32
			C41.52,20.05,40.42,20.64,39.08,21.24z"/>
		<path class="st1" d="M48.32,21.95c-7.7,0-13.86,6.2-13.86,13.94c0,7.9,6.1,14.01,13.99,14c7.72,0,13.96-6.2,13.96-13.87
			C62.41,28.14,56.21,21.95,48.32,21.95z"/>
	</g>
	<g>
		<path class="st0" d="M44.14,33.87c0.19,0.01,0.3,0.03,0.4,0.03c0.79,0,1.58,0,2.38,0c0.5,0,0.8,0.26,0.82,0.69
			c0.02,0.44-0.3,0.75-0.8,0.75c-1.45,0.01-2.9,0.01-4.35,0c-0.51,0-0.81-0.3-0.81-0.82c-0.01-1.44-0.01-2.88,0-4.32
			c0-0.51,0.29-0.82,0.74-0.81c0.45,0.01,0.71,0.3,0.71,0.83c0,0.65,0,1.29,0,1.94c0,0.12,0.01,0.24,0.02,0.35
			c0.03,0.02,0.06,0.03,0.08,0.05c0.19-0.22,0.4-0.43,0.58-0.65c0.97-1.18,2.19-1.96,3.66-2.32c3.73-0.92,7.66,1.28,8.54,5.27
			c0.54,2.46-0.1,4.65-1.85,6.43c-1.62,1.66-3.66,2.32-5.98,2c-1.06-0.14-2.02-0.51-2.9-1.12c-0.11-0.08-0.22-0.15-0.32-0.25
			c-0.28-0.27-0.32-0.69-0.1-0.97c0.25-0.31,0.63-0.38,0.98-0.14c0.63,0.44,1.3,0.77,2.05,0.95c3.06,0.74,6.23-1.32,6.77-4.41
			c0.56-3.22-1.7-6.06-4.62-6.47c-2.08-0.3-3.82,0.37-5.17,2.01C44.71,33.21,44.45,33.5,44.14,33.87z"/>
	</g>
</g>
</svg>
