<?xml version="1.0" encoding="utf-8"?>
<!-- Generator: Adobe Illustrator 25.3.0, SVG Export Plug-In . SVG Version: 6.00 Build 0)  -->
<svg version="1.1" id="레이어_1" xmlns="http://www.w3.org/2000/svg" xmlns:xlink="http://www.w3.org/1999/xlink" x="0px"
	 y="0px" viewBox="0 0 25.33 23.61" style="enable-background:new 0 0 25.33 23.61;" xml:space="preserve">
<style type="text/css">
	.st0{fill:#000503;}
</style>
<path class="st0" d="M24.73,20.5l-6.34-5.32c1.02-1.63,1.54-3.53,1.48-5.47c0-0.01,0-0.02,0-0.02c-0.01-0.2-0.01-0.4-0.03-0.61
	c-0.01-0.06-0.02-0.12-0.02-0.18c-0.03-0.26-0.06-0.52-0.11-0.78C19.7,8.01,19.67,7.9,19.64,7.8c-0.05-0.21-0.09-0.42-0.15-0.63
	C19.47,7.08,19.43,7,19.4,6.91c-0.07-0.22-0.14-0.45-0.23-0.66c-0.03-0.06-0.06-0.13-0.08-0.19c-0.1-0.24-0.2-0.47-0.32-0.7
	c-0.03-0.05-0.06-0.09-0.08-0.14c-0.13-0.24-0.26-0.47-0.41-0.7c-0.04-0.05-0.08-0.1-0.11-0.16c-0.14-0.21-0.29-0.43-0.45-0.63
	c-0.08-0.1-0.18-0.2-0.26-0.3c-0.13-0.15-0.25-0.29-0.38-0.43c-0.23-0.24-0.47-0.46-0.73-0.68C12.13-1.2,5.86-0.65,2.33,3.55
	C-1.2,7.76-0.65,14.03,3.55,17.56c3.65,3.06,8.84,3.05,12.46,0.26l6.44,5.4c0.74,0.59,1.82,0.5,2.44-0.21
	C25.54,22.27,25.47,21.14,24.73,20.5z M19.87,10.13c0-0.12,0.01-0.23,0.01-0.35C19.88,9.9,19.87,10.02,19.87,10.13z M19.85,10.66
	c-0.01,0.15-0.03,0.3-0.04,0.45C19.82,10.96,19.84,10.81,19.85,10.66z M19.75,11.51c-0.03,0.18-0.06,0.36-0.1,0.54
	C19.69,11.87,19.72,11.69,19.75,11.51z M19.59,12.28c-0.24,1.01-0.64,1.98-1.21,2.89l0,0C18.95,14.26,19.35,13.28,19.59,12.28z
	 M14.44,16.35c-1.09,0.76-2.39,1.26-3.82,1.37c-0.28,0.02-0.56,0.03-0.84,0.03c-1.77-0.04-3.49-0.67-4.86-1.82
	c-1.6-1.35-2.52-3.2-2.74-5.13C1.96,8.76,2.53,6.62,3.96,4.92c1.33-1.59,3.24-2.59,5.3-2.76c0.03,0,0.07-0.01,0.1-0.01
	c4.3-0.35,8.07,2.86,8.42,7.16c0.13,1.66-0.26,3.23-1.04,4.56C16.17,14.86,15.38,15.7,14.44,16.35z"/>
</svg>
